<svg id="visual" viewBox="0 0 900 300" width="900" height="300" xmlns="http://www.w3.org/2000/svg" xmlns:xlink="http://www.w3.org/1999/xlink" version="1.1"><rect x="0" y="0" width="900" height="300" fill="#121212"></rect><path d="M0 202L15 202.2C30 202.3 60 202.7 90 204.3C120 206 150 209 180 211.5C210 214 240 216 270 214C300 212 330 206 360 203.2C390 200.3 420 200.7 450 204.7C480 208.7 510 216.3 540 218.7C570 221 600 218 630 217.2C660 216.3 690 217.7 720 218.8C750 220 780 221 810 222C840 223 870 224 885 224.5L900 225L900 301L885 301C870 301 840 301 810 301C780 301 750 301 720 301C690 301 660 301 630 301C600 301 570 301 540 301C510 301 480 301 450 301C420 301 390 301 360 301C330 301 300 301 270 301C240 301 210 301 180 301C150 301 120 301 90 301C60 301 30 301 15 301L0 301Z" fill="#e792d5"></path><path d="M0 233L15 230.5C30 228 60 223 90 221C120 219 150 220 180 222.5C210 225 240 229 270 231C300 233 330 233 360 231.8C390 230.7 420 228.3 450 228.2C480 228 510 230 540 229.3C570 228.7 600 225.3 630 226.5C660 227.7 690 233.3 720 232.8C750 232.3 780 225.7 810 222.8C840 220 870 221 885 221.5L900 222L900 301L885 301C870 301 840 301 810 301C780 301 750 301 720 301C690 301 660 301 630 301C600 301 570 301 540 301C510 301 480 301 450 301C420 301 390 301 360 301C330 301 300 301 270 301C240 301 210 301 180 301C150 301 120 301 90 301C60 301 30 301 15 301L0 301Z" fill="#bc89c5"></path><path d="M0 248L15 245.8C30 243.7 60 239.3 90 238.5C120 237.7 150 240.3 180 241.2C210 242 240 241 270 241.5C300 242 330 244 360 243.3C390 242.7 420 239.3 450 238C480 236.7 510 237.3 540 238C570 238.7 600 239.3 630 238C660 236.7 690 233.3 720 234.3C750 235.3 780 240.7 810 243.8C840 247 870 248 885 248.5L900 249L900 301L885 301C870 301 840 301 810 301C780 301 750 301 720 301C690 301 660 301 630 301C600 301 570 301 540 301C510 301 480 301 450 301C420 301 390 301 360 301C330 301 300 301 270 301C240 301 210 301 180 301C150 301 120 301 90 301C60 301 30 301 15 301L0 301Z" fill="#967dae"></path><path d="M0 258L15 257C30 256 60 254 90 252.3C120 250.7 150 249.3 180 250C210 250.7 240 253.3 270 253.8C300 254.3 330 252.7 360 251.3C390 250 420 249 450 250.2C480 251.3 510 254.7 540 254.2C570 253.7 600 249.3 630 247.5C660 245.7 690 246.3 720 248.7C750 251 780 255 810 257.5C840 260 870 261 885 261.5L900 262L900 301L885 301C870 301 840 301 810 301C780 301 750 301 720 301C690 301 660 301 630 301C600 301 570 301 540 301C510 301 480 301 450 301C420 301 390 301 360 301C330 301 300 301 270 301C240 301 210 301 180 301C150 301 120 301 90 301C60 301 30 301 15 301L0 301Z" fill="#767093"></path><path d="M0 269L15 269.5C30 270 60 271 90 271.2C120 271.3 150 270.7 180 270.2C210 269.7 240 269.3 270 268.8C300 268.3 330 267.7 360 267.8C390 268 420 269 450 268.7C480 268.3 510 266.7 540 266.8C570 267 600 269 630 269.3C660 269.7 690 268.3 720 268C750 267.7 780 268.3 810 268.8C840 269.3 870 269.7 885 269.8L900 270L900 301L885 301C870 301 840 301 810 301C780 301 750 301 720 301C690 301 660 301 630 301C600 301 570 301 540 301C510 301 480 301 450 301C420 301 390 301 360 301C330 301 300 301 270 301C240 301 210 301 180 301C150 301 120 301 90 301C60 301 30 301 15 301L0 301Z" fill="#5e6174"></path><path d="M0 287L15 285.5C30 284 60 281 90 279.5C120 278 150 278 180 279.2C210 280.3 240 282.7 270 283.5C300 284.3 330 283.7 360 282.7C390 281.7 420 280.3 450 279.8C480 279.3 510 279.7 540 280.2C570 280.7 600 281.3 630 281.2C660 281 690 280 720 281C750 282 780 285 810 284.5C840 284 870 280 885 278L900 276L900 301L885 301C870 301 840 301 810 301C780 301 750 301 720 301C690 301 660 301 630 301C600 301 570 301 540 301C510 301 480 301 450 301C420 301 390 301 360 301C330 301 300 301 270 301C240 301 210 301 180 301C150 301 120 301 90 301C60 301 30 301 15 301L0 301Z" fill="#4e5055"></path></svg>