<svg id="visual" viewBox="0 0 900 300" width="900" height="300" xmlns="http://www.w3.org/2000/svg" xmlns:xlink="http://www.w3.org/1999/xlink" version="1.1"><rect x="0" y="0" width="900" height="300" fill="#4E5055"></rect><path d="M0 190L15 190.2C30 190.3 60 190.7 90 192C120 193.3 150 195.7 180 195C210 194.3 240 190.7 270 187.2C300 183.7 330 180.3 360 175.8C390 171.3 420 165.7 450 168.7C480 171.7 510 183.3 540 188C570 192.7 600 190.3 630 189.8C660 189.3 690 190.7 720 188C750 185.3 780 178.7 810 175.2C840 171.7 870 171.3 885 171.2L900 171L900 301L885 301C870 301 840 301 810 301C780 301 750 301 720 301C690 301 660 301 630 301C600 301 570 301 540 301C510 301 480 301 450 301C420 301 390 301 360 301C330 301 300 301 270 301C240 301 210 301 180 301C150 301 120 301 90 301C60 301 30 301 15 301L0 301Z" fill="#e792d5"></path><path d="M0 207L15 207.2C30 207.3 60 207.7 90 204C120 200.3 150 192.7 180 189C210 185.3 240 185.7 270 185.7C300 185.7 330 185.3 360 185.3C390 185.3 420 185.7 450 188.7C480 191.7 510 197.3 540 199.3C570 201.3 600 199.7 630 196.7C660 193.7 690 189.3 720 186.2C750 183 780 181 810 184C840 187 870 195 885 199L900 203L900 301L885 301C870 301 840 301 810 301C780 301 750 301 720 301C690 301 660 301 630 301C600 301 570 301 540 301C510 301 480 301 450 301C420 301 390 301 360 301C330 301 300 301 270 301C240 301 210 301 180 301C150 301 120 301 90 301C60 301 30 301 15 301L0 301Z" fill="#c980b9"></path><path d="M0 222L15 218.5C30 215 60 208 90 204.7C120 201.3 150 201.7 180 201.5C210 201.3 240 200.7 270 204C300 207.3 330 214.7 360 215.3C390 216 420 210 450 210.2C480 210.3 510 216.7 540 217.7C570 218.7 600 214.3 630 209.3C660 204.3 690 198.7 720 197.8C750 197 780 201 810 201.8C840 202.7 870 200.3 885 199.2L900 198L900 301L885 301C870 301 840 301 810 301C780 301 750 301 720 301C690 301 660 301 630 301C600 301 570 301 540 301C510 301 480 301 450 301C420 301 390 301 360 301C330 301 300 301 270 301C240 301 210 301 180 301C150 301 120 301 90 301C60 301 30 301 15 301L0 301Z" fill="#ac6f9e"></path><path d="M0 233L15 230.7C30 228.3 60 223.7 90 220.8C120 218 150 217 180 215.3C210 213.7 240 211.3 270 214C300 216.7 330 224.3 360 226.5C390 228.7 420 225.3 450 220.5C480 215.7 510 209.3 540 211.5C570 213.7 600 224.3 630 227.3C660 230.3 690 225.7 720 221.5C750 217.3 780 213.7 810 211.7C840 209.7 870 209.3 885 209.2L900 209L900 301L885 301C870 301 840 301 810 301C780 301 750 301 720 301C690 301 660 301 630 301C600 301 570 301 540 301C510 301 480 301 450 301C420 301 390 301 360 301C330 301 300 301 270 301C240 301 210 301 180 301C150 301 120 301 90 301C60 301 30 301 15 301L0 301Z" fill="#8f5e84"></path><path d="M0 241L15 239.8C30 238.7 60 236.3 90 234.3C120 232.3 150 230.7 180 231.7C210 232.7 240 236.3 270 238C300 239.7 330 239.3 360 236.3C390 233.3 420 227.7 450 228.8C480 230 510 238 540 239.3C570 240.7 600 235.3 630 231C660 226.7 690 223.3 720 221.2C750 219 780 218 810 218.7C840 219.3 870 221.7 885 222.8L900 224L900 301L885 301C870 301 840 301 810 301C780 301 750 301 720 301C690 301 660 301 630 301C600 301 570 301 540 301C510 301 480 301 450 301C420 301 390 301 360 301C330 301 300 301 270 301C240 301 210 301 180 301C150 301 120 301 90 301C60 301 30 301 15 301L0 301Z" fill="#744e6b"></path><path d="M0 239L15 241.2C30 243.3 60 247.7 90 250C120 252.3 150 252.7 180 249.8C210 247 240 241 270 241.5C300 242 330 249 360 251.7C390 254.3 420 252.7 450 252.3C480 252 510 253 540 253.2C570 253.3 600 252.7 630 249.5C660 246.3 690 240.7 720 238.8C750 237 780 239 810 239.7C840 240.3 870 239.7 885 239.3L900 239L900 301L885 301C870 301 840 301 810 301C780 301 750 301 720 301C690 301 660 301 630 301C600 301 570 301 540 301C510 301 480 301 450 301C420 301 390 301 360 301C330 301 300 301 270 301C240 301 210 301 180 301C150 301 120 301 90 301C60 301 30 301 15 301L0 301Z" fill="#5a3e53"></path><path d="M0 255L15 253.3C30 251.7 60 248.3 90 248.2C120 248 150 251 180 251.8C210 252.7 240 251.3 270 252.8C300 254.3 330 258.7 360 258C390 257.3 420 251.7 450 250.8C480 250 510 254 540 254C570 254 600 250 630 250C660 250 690 254 720 256.2C750 258.3 780 258.7 810 260C840 261.3 870 263.7 885 264.8L900 266L900 301L885 301C870 301 840 301 810 301C780 301 750 301 720 301C690 301 660 301 630 301C600 301 570 301 540 301C510 301 480 301 450 301C420 301 390 301 360 301C330 301 300 301 270 301C240 301 210 301 180 301C150 301 120 301 90 301C60 301 30 301 15 301L0 301Z" fill="#402f3c"></path><path d="M0 272L15 272.8C30 273.7 60 275.3 90 274.5C120 273.7 150 270.3 180 270C210 269.7 240 272.3 270 274C300 275.7 330 276.3 360 276.5C390 276.7 420 276.3 450 275.3C480 274.3 510 272.7 540 272.3C570 272 600 273 630 272.8C660 272.7 690 271.3 720 271.3C750 271.3 780 272.7 810 273C840 273.3 870 272.7 885 272.3L900 272L900 301L885 301C870 301 840 301 810 301C780 301 750 301 720 301C690 301 660 301 630 301C600 301 570 301 540 301C510 301 480 301 450 301C420 301 390 301 360 301C330 301 300 301 270 301C240 301 210 301 180 301C150 301 120 301 90 301C60 301 30 301 15 301L0 301Z" fill="#292127"></path><path d="M0 274L15 275.5C30 277 60 280 90 281.2C120 282.3 150 281.7 180 282C210 282.3 240 283.7 270 284.3C300 285 330 285 360 285C390 285 420 285 450 283.2C480 281.3 510 277.7 540 276C570 274.3 600 274.7 630 276.7C660 278.7 690 282.3 720 283.5C750 284.7 780 283.3 810 282.7C840 282 870 282 885 282L900 282L900 301L885 301C870 301 840 301 810 301C780 301 750 301 720 301C690 301 660 301 630 301C600 301 570 301 540 301C510 301 480 301 450 301C420 301 390 301 360 301C330 301 300 301 270 301C240 301 210 301 180 301C150 301 120 301 90 301C60 301 30 301 15 301L0 301Z" fill="#121212"></path></svg>